<?xml version="1.0" encoding="UTF-8" standalone="no"?>
<!-- Created with Inkscape (http://www.inkscape.org/) -->

<svg
   version="1.1"
   id="svg1"
   width="379.84573"
   height="210.16782"
   viewBox="0 0 379.84573 210.16782"
   xmlns="http://www.w3.org/2000/svg"
   xmlns:svg="http://www.w3.org/2000/svg">
  <defs
     id="defs1">
    <clipPath
       clipPathUnits="userSpaceOnUse"
       id="clipPath35">
      <path
         d="M 0,500 H 2650 V 0 H 0 Z"
         transform="translate(-167.01111,-190.07351)"
         id="path35" />
    </clipPath>
    <clipPath
       clipPathUnits="userSpaceOnUse"
       id="clipPath37">
      <path
         d="M 0,500 H 2650 V 0 H 0 Z"
         transform="translate(-53.812001,-143.8476)"
         id="path37" />
    </clipPath>
    <clipPath
       clipPathUnits="userSpaceOnUse"
       id="clipPath39">
      <path
         d="M 0,500 H 2650 V 0 H 0 Z"
         transform="translate(-322.40331,-143.8476)"
         id="path39" />
    </clipPath>
    <clipPath
       clipPathUnits="userSpaceOnUse"
       id="clipPath41">
      <path
         d="M 0,500 H 2650 V 0 H 0 Z"
         transform="translate(-209.2042,-190.07351)"
         id="path41" />
    </clipPath>
  </defs>
  <g
     id="layer-MC0"
     transform="translate(-60.887399,-393.20401)">
    <path
       id="path34"
       d="M 0,0 V 0 C 9.703,-13.501 6.624,-32.311 -6.877,-42.014 L -71.185,-88.23 c -13.501,-9.703 -32.311,-6.624 -42.014,6.877 v 0 c -9.703,13.501 -6.624,32.311 6.877,42.014 L -42.014,6.877 C -28.513,16.58 -9.703,13.501 0,0"
       style="fill:#ea4335;fill-opacity:1;fill-rule:nonzero;stroke:#0f0f0f;stroke-width:5;stroke-linecap:butt;stroke-linejoin:miter;stroke-miterlimit:10;stroke-dasharray:none;stroke-opacity:1"
       transform="matrix(1.3333333,0,0,-1.3333333,222.68147,413.23533)"
       clip-path="url(#clipPath35)" />
    <path
       id="path36"
       d="M 0,0 V 0 C -9.703,-13.501 -6.624,-32.311 6.877,-42.014 L 71.185,-88.23 c 13.501,-9.703 32.311,-6.624 42.014,6.877 v 0 c 9.703,13.501 6.624,32.311 -6.877,42.014 L 42.014,6.877 C 28.513,16.58 9.703,13.501 0,0"
       style="fill:#4285fa;fill-opacity:1;fill-rule:nonzero;stroke:#0f0f0f;stroke-width:5;stroke-linecap:butt;stroke-linejoin:miter;stroke-miterlimit:10;stroke-dasharray:none;stroke-opacity:1"
       transform="matrix(1.3333333,0,0,-1.3333333,71.749333,474.86987)"
       clip-path="url(#clipPath37)" />
    <path
       id="path38"
       d="M 0,0 V 0 C 9.703,-13.501 6.624,-32.311 -6.877,-42.014 L -71.185,-88.23 c -13.501,-9.703 -32.311,-6.624 -42.014,6.877 v 0 c -9.703,13.501 -6.624,32.311 6.877,42.014 L -42.014,6.877 C -28.513,16.58 -9.703,13.501 0,0"
       style="fill:#f9ab00;fill-opacity:1;fill-rule:nonzero;stroke:#0f0f0f;stroke-width:5;stroke-linecap:butt;stroke-linejoin:miter;stroke-miterlimit:10;stroke-dasharray:none;stroke-opacity:1"
       transform="matrix(1.3333333,0,0,-1.3333333,429.87107,474.86987)"
       clip-path="url(#clipPath39)" />
    <path
       id="path40"
       d="M 0,0 V 0 C -9.703,-13.501 -6.624,-32.311 6.877,-42.014 L 71.185,-88.23 c 13.501,-9.703 32.311,-6.624 42.014,6.877 v 0 c 9.703,13.501 6.624,32.311 -6.877,42.014 L 42.014,6.877 C 28.513,16.58 9.703,13.501 0,0"
       style="fill:#34a853;fill-opacity:1;fill-rule:nonzero;stroke:#0f0f0f;stroke-width:5;stroke-linecap:butt;stroke-linejoin:miter;stroke-miterlimit:10;stroke-dasharray:none;stroke-opacity:1"
       transform="matrix(1.3333333,0,0,-1.3333333,278.93893,413.23533)"
       clip-path="url(#clipPath41)" />
  </g>
</svg>
